<svg width="82" height="94" viewBox="0 0 82 94" fill="none" xmlns="http://www.w3.org/2000/svg">
<path d="M9.98907 1.21067C12.0176 2.3781 16.0747 3.06992 20.5634 3.06992C25.0521 3.06992 29.1092 2.3781 31.1378 1.21067C31.4399 1.03772 31.5694 0.648574 31.3968 0.345906C31.2241 0.0432383 30.8357 -0.0864765 30.5335 0.0864765C28.6776 1.1242 24.7932 1.77277 20.5634 1.77277C16.3337 1.77277 12.4492 1.1242 10.6365 0.0864765C10.3344 -0.0864765 9.94591 0 9.77327 0.345906C9.55747 0.648574 9.68695 1.03772 9.98907 1.21067Z" fill="white"/>
<path d="M5.97515 14.6145C8.78059 16.2144 14.3915 17.1656 20.6066 17.1656C26.8217 17.1656 32.4326 16.1711 35.2381 14.6145C35.5402 14.4416 35.6697 14.0524 35.497 13.7498C35.3244 13.4471 34.936 13.3174 34.6338 13.4903C32.0442 14.9604 26.5628 15.8684 20.6498 15.8684C14.7368 15.8684 9.25536 14.9172 6.66572 13.4903C6.36359 13.3174 5.97515 13.4039 5.8025 13.7498C5.54354 14.0524 5.62986 14.4416 5.97515 14.6145Z" fill="white"/>
<path d="M38.6046 26.9374C35.2812 28.7967 28.2029 30.0506 20.6066 30.0506C12.9672 30.0506 5.88883 28.8399 2.56546 26.9374C2.26334 26.7645 1.87489 26.851 1.70225 27.1969C1.52961 27.4995 1.61593 27.8887 1.96121 28.0616C5.41407 30.0074 12.2766 31.2613 19.9592 31.3045V73.6348C19.9592 73.9807 20.2613 74.2834 20.6066 74.2834C20.9519 74.2834 21.254 73.9807 21.254 73.6348V31.3045C28.9366 31.218 35.7992 30.0074 39.252 28.0616C39.5541 27.8887 39.6836 27.4995 39.511 27.1969C39.2952 26.851 38.9067 26.7645 38.6046 26.9374Z" fill="white"/>
<path d="M32.6484 54.9991C31.3104 47.4756 31.3104 40.2981 32.5621 36.666C32.6916 36.3201 32.5189 35.9742 32.1737 35.8445C31.8284 35.7148 31.4831 35.8878 31.3536 36.2337C29.9725 40.0819 30.0156 47.3459 31.3968 55.2153C32.7779 63.0414 35.2381 69.873 37.8277 73.0294C37.9572 73.2024 38.1298 73.2456 38.3456 73.2456C38.4751 73.2456 38.6478 73.2024 38.7772 73.1159C39.0362 72.8997 39.0794 72.4673 38.8636 72.2079C36.4034 69.2677 33.9864 62.5225 32.6484 54.9991Z" fill="white"/>
<path d="M8.99639 35.8445C8.65111 35.9742 8.47847 36.3202 8.60795 36.6661C9.85961 40.2548 9.85961 47.4756 8.52163 54.9991C7.18365 62.5225 4.76665 69.311 2.34965 72.2512C2.13385 72.5106 2.17701 72.943 2.43597 73.1592C2.56546 73.2456 2.69494 73.2889 2.86758 73.2889C3.04022 73.2889 3.25603 73.2024 3.38551 73.0727C5.97515 69.9163 8.43531 63.0846 9.81645 55.2153C11.1976 47.3891 11.1976 40.1251 9.85961 36.2337C9.68696 35.931 9.29852 35.7148 8.99639 35.8445Z" fill="white"/>
<path d="M79.1324 73.0727C79.2619 73.2456 79.4346 73.2889 79.6504 73.2889C79.7799 73.2889 79.9525 73.2456 80.082 73.1591C80.3409 72.943 80.3841 72.5106 80.1683 72.2511C77.7513 69.3109 75.3343 62.5225 73.9963 54.9991C72.6583 47.4756 72.6583 40.2981 73.91 36.666C74.0395 36.3201 73.8668 35.9742 73.5216 35.8445C73.1763 35.7148 72.831 35.8878 72.7015 36.2337C71.3204 40.0819 71.3635 47.3459 72.7447 55.2153C73.5647 59.7985 74.7301 63.9926 76.068 67.3652C72.7878 66.1113 67.6085 65.333 61.9113 65.333C56.2573 65.333 51.0349 66.1113 47.7978 67.3652C49.1358 63.9926 50.3443 59.7985 51.1212 55.2153C52.5023 47.3891 52.5023 40.1251 51.1643 36.2337C51.0349 35.8878 50.6896 35.7148 50.3443 35.8445C49.999 35.9742 49.8264 36.3201 49.9558 36.666C51.2075 40.2548 51.2075 47.4756 49.8695 54.9991C48.5315 62.5225 46.1145 69.3109 43.6975 72.2511C43.4817 72.5106 43.5249 72.943 43.7839 73.1591C43.9133 73.2456 44.0428 73.2889 44.2155 73.2889C44.3881 73.2889 44.6039 73.2024 44.7334 73.0727C45.5535 72.0782 46.3303 70.7378 47.1072 69.138C49.9558 67.6246 55.7394 66.6302 61.9977 66.6302C68.256 66.6302 74.0395 67.6246 76.8881 69.138C77.5355 70.7378 78.3124 72.0782 79.1324 73.0727Z" fill="white"/>
<path d="M51.2938 1.21067C53.3224 2.3781 57.3795 3.06992 61.8682 3.06992C66.3569 3.06992 70.414 2.3781 72.4426 1.21067C72.7447 1.03772 72.8742 0.648574 72.7015 0.345906C72.5289 0.0432383 72.1404 -0.0864765 71.8383 0.0864765C70.0256 1.1242 66.098 1.77277 61.9114 1.77277C57.6816 1.77277 53.7972 1.1242 51.9844 0.0864765C51.6823 -0.0864765 51.2938 0 51.1212 0.345906C50.9054 0.648574 50.9917 1.03772 51.2938 1.21067Z" fill="white"/>
<path d="M43.2228 28.0616C46.7619 30.0938 53.9266 31.3045 61.8682 31.3045C69.8097 31.3045 76.9744 30.0506 80.5136 28.0616C80.8157 27.8887 80.9452 27.4995 80.7725 27.1969C80.5999 26.8942 80.2114 26.7645 79.9093 26.9374C76.586 28.7967 69.5076 30.0506 61.9113 30.0506C54.2719 30.0506 47.1935 28.8399 43.8702 26.9374C43.568 26.7645 43.1796 26.851 43.007 27.1969C42.7912 27.4995 42.9206 27.8887 43.2228 28.0616Z" fill="white"/>
<path d="M3.90344 82.1095C3.86028 82.1095 3.86028 82.1095 3.86028 82.1095C3.81711 82.1095 3.77395 82.1527 3.73079 82.1527C3.68763 82.1527 3.60131 82.1527 3.55815 82.196L2.91074 82.2392V81.5474L3.90344 81.4609C4.03292 81.4609 4.11924 81.4177 4.11924 81.3312C4.11924 81.288 4.11924 81.288 4.07608 81.2015C4.03292 81.1582 3.98976 81.0718 3.9466 81.0285C3.90344 80.9853 3.81711 80.942 3.77395 80.942C3.73079 80.942 3.73079 80.942 3.68763 80.942C3.64447 80.942 3.60131 80.9853 3.55815 80.9853C3.51499 80.9853 3.47183 80.9853 3.38551 81.0285L2.9539 81.0718V80.2935C3.25603 80.207 3.47183 80.1205 3.64447 80.0773C3.81711 80.034 3.9466 79.9908 3.98976 79.9476C4.07608 79.9043 4.11924 79.9043 4.11924 79.8611L4.1624 79.8179C4.1624 79.7746 4.1624 79.6881 4.11924 79.6017C4.07608 79.5152 4.03292 79.4287 3.98976 79.3855C3.9466 79.299 3.90344 79.299 3.86028 79.299C3.81711 79.299 3.81711 79.299 3.77395 79.3422C3.73079 79.3855 3.73079 79.4287 3.68763 79.4719C3.64447 79.5152 3.55815 79.5584 3.47183 79.6017C3.34235 79.6449 3.21287 79.7314 2.9539 79.8179V78.9098C2.9539 78.8234 2.91074 78.7369 2.82442 78.6937C2.7381 78.6504 2.65178 78.6504 2.56546 78.6072C2.47913 78.6072 2.43597 78.6072 2.39281 78.6072C2.30649 78.6072 2.26333 78.6072 2.26333 78.6504C2.26333 78.6504 2.26333 78.6504 2.26333 78.6937C2.30649 78.7801 2.34965 78.8666 2.39281 78.9098C2.39281 78.9963 2.43597 79.0828 2.43597 79.1693V79.9908C2.04753 80.1205 1.65908 80.2502 1.3138 80.3799C1.09799 80.4232 1.01167 80.5097 1.01167 80.5529C1.01167 80.5961 1.05483 80.5961 1.18431 80.5961C1.27064 80.5961 1.44328 80.5529 1.65908 80.5097C1.91805 80.4664 2.17701 80.4232 2.47913 80.3367V81.0285L1.7454 81.0718C1.70224 81.0718 1.70224 81.0718 1.65908 81.0718C1.61592 81.0718 1.61592 81.0718 1.57276 81.0718C1.48644 81.0718 1.40012 81.0718 1.35696 81.0285C1.3138 81.0285 1.27064 81.0285 1.27064 81.0285C1.22748 81.0285 1.18431 81.0285 1.18431 81.0718C1.18431 81.0718 1.18431 81.115 1.18431 81.1582C1.18431 81.1582 1.18431 81.2015 1.22748 81.2447C1.27064 81.2879 1.3138 81.3744 1.35696 81.4177C1.40012 81.4609 1.48644 81.5041 1.57276 81.5041C1.61592 81.5041 1.61592 81.5041 1.65908 81.5041C1.70224 81.5041 1.7454 81.5041 1.78856 81.5041L2.39281 81.4609V82.1527L1.18431 82.2392H1.05483C0.92535 82.2392 0.839029 82.2392 0.752708 82.196C0.752708 82.196 0.709547 82.196 0.666387 82.196C0.623226 82.196 0.623226 82.196 0.623226 82.2392C0.623226 82.2824 0.623226 82.3257 0.666387 82.4121C0.709547 82.4986 0.752708 82.5851 0.839029 82.6283C0.88219 82.6716 0.968511 82.6716 1.05483 82.6716H1.14115C1.18431 82.6716 1.22748 82.6716 1.22748 82.6716L2.17701 82.6283C1.91805 83.1472 1.65908 83.5796 1.40012 84.012C1.14115 84.4443 0.88219 84.7903 0.623226 85.0929C0.536905 85.2226 0.493744 85.3091 0.493744 85.3523C0.493744 85.3956 0.493744 85.3956 0.536905 85.3956C0.580065 85.3956 0.709547 85.3524 0.839029 85.2226C1.01167 85.0929 1.18431 84.92 1.35696 84.7038C1.5296 84.4876 1.7454 84.2282 1.91805 83.9687C2.09069 83.6661 2.26333 83.3634 2.39281 83.0607C2.34965 83.1904 2.34965 83.3201 2.34965 83.4066C2.34965 83.4931 2.34965 83.5796 2.34965 83.6661C2.34965 83.839 2.34965 84.012 2.34965 84.2282C2.34965 84.4443 2.34965 84.7038 2.34965 84.9632C2.34965 85.2226 2.34965 85.4388 2.34965 85.5685C2.34965 85.6983 2.30649 85.828 2.30649 85.8712V85.9144C2.30649 86.0009 2.34965 86.0874 2.39281 86.1306C2.43597 86.1739 2.52229 86.2171 2.56546 86.2604C2.65178 86.3036 2.69494 86.3036 2.69494 86.3036C2.7381 86.3036 2.78126 86.2603 2.82442 86.2171C2.82442 86.1739 2.86758 86.1306 2.86758 86.0874V83.3634C3.04022 83.4931 3.1697 83.6661 3.34235 83.7958C3.51499 83.9255 3.60131 84.0984 3.77395 84.2714C3.81711 84.3146 3.86028 84.3579 3.90344 84.3579C3.9466 84.4011 3.9466 84.4011 3.98976 84.4011C4.03292 84.4011 4.07608 84.3579 4.11924 84.3146C4.1624 84.2714 4.20556 84.2282 4.20556 84.1849C4.24872 84.1417 4.24872 84.0984 4.24872 84.0552C4.24872 84.012 4.20556 83.9687 4.11924 83.8822C4.03292 83.7958 3.9466 83.7093 3.81711 83.6228C3.68763 83.5363 3.60131 83.4066 3.47183 83.3201C3.34235 83.2337 3.25603 83.1472 3.1697 83.0607C3.08338 82.9742 3.04022 82.9742 2.99706 82.9742C2.9539 82.9742 2.91074 82.9742 2.86758 83.0175V82.4986L4.11924 82.4121C4.20556 82.4121 4.29188 82.3689 4.29188 82.2824C4.29188 82.196 4.24872 82.1095 4.1624 82.023C4.07608 82.1527 3.98976 82.1095 3.90344 82.1095Z" fill="white"/>
<path d="M8.30581 85.5253C8.26265 85.3956 8.17633 85.2226 8.04684 85.0497C7.96052 84.8767 7.83104 84.6605 7.70156 84.4444C7.57208 84.2282 7.44259 84.0552 7.35627 83.839C7.22679 83.6661 7.14047 83.4931 7.01099 83.3634C6.96783 83.2769 6.88151 83.2337 6.83835 83.2337C6.79518 83.2337 6.75202 83.2337 6.6657 83.2769C6.57938 83.3202 6.49306 83.4066 6.49306 83.4499C6.49306 83.4931 6.53622 83.5363 6.57938 83.6228C6.83835 84.012 7.09731 84.3579 7.26995 84.747C6.83835 84.8767 6.4499 84.9632 6.10461 85.0065C5.75933 85.0497 5.41404 85.1362 5.06876 85.1794C5.2414 84.8335 5.37088 84.5308 5.50036 84.2282C5.62985 83.9255 5.75933 83.6228 5.84565 83.3202C5.97513 83.0175 6.06145 82.6716 6.19094 82.2824L8.17633 82.196C8.30581 82.196 8.39213 82.1527 8.39213 82.0662C8.39213 82.0662 8.39213 82.023 8.34897 81.9365C8.30581 81.8501 8.26265 81.8068 8.21949 81.7203C8.17633 81.6339 8.09 81.6339 8.04684 81.6339C8.04684 81.6339 8.00368 81.6339 7.96052 81.6339C7.8742 81.6771 7.78788 81.6771 7.70156 81.6771L4.68031 81.8501H4.59399C4.46451 81.8501 4.37819 81.8501 4.24871 81.8068H4.20554C4.16238 81.8068 4.16238 81.8068 4.16238 81.8501C4.16238 81.8933 4.16238 81.8933 4.16238 81.8933C4.20554 82.0662 4.29187 82.196 4.37819 82.2392C4.46451 82.2824 4.55083 82.3257 4.63715 82.3257H4.76663L5.67301 82.2824C5.58669 82.5419 5.50036 82.8013 5.41404 83.0175C5.32772 83.2769 5.2414 83.5363 5.11192 83.7958C4.98244 84.0552 4.85295 84.4011 4.72347 84.747C4.63715 84.8767 4.59399 85.0064 4.55083 85.0497C4.50767 85.0929 4.46451 85.1362 4.42135 85.1794C4.37819 85.2226 4.33503 85.2659 4.33503 85.3091C4.33503 85.3524 4.33503 85.3956 4.37819 85.4388C4.42135 85.4821 4.46451 85.5685 4.55083 85.6118C4.59399 85.655 4.68031 85.6983 4.72347 85.6983C4.76663 85.6983 4.85295 85.6983 4.93928 85.655C5.0256 85.6118 5.19824 85.5685 5.37088 85.5253C5.62985 85.4821 5.93197 85.3956 6.32042 85.3091C6.6657 85.2226 7.09731 85.1362 7.52892 85.0065C7.57208 85.1362 7.61524 85.2226 7.70156 85.3524C7.78788 85.4821 7.78788 85.6118 7.8742 85.7415C7.91736 85.8712 8.00368 85.9577 8.04684 85.9577C8.13317 85.9577 8.21949 85.9145 8.30581 85.828C8.39213 85.7415 8.43529 85.655 8.43529 85.6118C8.43529 85.7415 8.39213 85.655 8.30581 85.5253Z" fill="white"/>
<path d="M4.85294 80.2935C4.8961 80.2935 4.98243 80.2935 5.02559 80.2935H5.15507L7.61523 80.1205C7.78787 80.1205 7.87419 80.0773 7.87419 79.9908C7.87419 79.9476 7.83103 79.9043 7.78787 79.8611C7.74471 79.8178 7.70155 79.7314 7.61523 79.6881C7.52891 79.6449 7.48574 79.6017 7.39942 79.6017H7.35626H7.3131C7.26994 79.6017 7.22678 79.6449 7.18362 79.6449C7.14046 79.6449 7.0973 79.6449 7.05414 79.6881L5.02559 79.8178H4.93927C4.8961 79.8178 4.85294 79.8178 4.80978 79.8178C4.76662 79.8178 4.72346 79.8178 4.6803 79.8178C4.63714 79.8178 4.63714 79.8178 4.59398 79.8178C4.55082 79.8178 4.55082 79.8178 4.55082 79.8611C4.55082 79.9043 4.55082 79.9476 4.59398 80.034C4.63714 80.1205 4.6803 80.1637 4.72346 80.207C4.72346 80.2502 4.76662 80.2935 4.85294 80.2935Z" fill="white"/>
<path d="M28.2892 83.2769C28.2892 83.2337 28.3323 83.2337 28.3323 83.1904C28.3323 83.1472 28.2892 83.0607 28.2028 83.0175C28.1165 82.9742 28.0302 82.931 27.9439 82.931H27.9007L26.2606 83.0175C25.9585 82.931 25.7858 82.8445 25.6995 82.8445C25.6564 82.8445 25.6132 82.8878 25.6132 82.931C25.6132 82.9742 25.6132 83.0175 25.6564 83.0607C25.6995 83.104 25.6995 83.1904 25.7427 83.2337C25.7427 83.2769 25.7427 83.3634 25.7858 83.4499L25.8722 85.3091V85.3956C25.8722 85.5253 25.8722 85.655 25.829 85.828C25.829 85.8712 25.829 85.8712 25.829 85.8712V85.9144C25.829 85.9577 25.829 86.0009 25.8722 86.0442C25.9153 86.0874 25.9585 86.1306 26.0448 86.1739C26.1311 86.2171 26.1743 86.2171 26.2175 86.2171C26.2606 86.2171 26.3038 86.2171 26.3038 86.1739C26.3038 86.1306 26.3469 86.0874 26.3469 86.0442V86.0009V85.8712L28.1165 85.828C28.1597 85.828 28.246 85.828 28.2892 85.828C28.3323 85.828 28.3323 85.7847 28.3323 85.7415C28.3323 85.6983 28.3323 85.655 28.2892 85.6118C28.246 85.5685 28.2028 85.4821 28.1165 85.3523L28.2892 83.4499C28.2892 83.3634 28.2892 83.3201 28.2892 83.2769ZM27.6418 85.3091L26.3038 85.3523L26.2606 84.5741L27.6418 84.5308V85.3091ZM27.6849 84.0984L26.2606 84.1417L26.2175 83.4499L27.7281 83.3634L27.6849 84.0984Z" fill="white"/>
<path d="M32.821 86.3036C32.9074 86.2604 32.9505 86.2171 33.0368 86.1739C33.08 86.1306 33.1232 86.0874 33.1232 86.0009C33.1232 85.9577 33.08 85.9144 32.9505 85.8712C32.5621 85.7415 32.2168 85.6118 31.9147 85.4388C31.6125 85.2659 31.3104 85.0929 31.0514 84.92C31.2241 84.747 31.3967 84.5741 31.5694 84.4011C31.742 84.2282 31.8715 84.012 32.001 83.7958C32.001 83.7525 32.0441 83.7093 32.0873 83.6661C32.1305 83.6228 32.1736 83.5796 32.1736 83.4931C32.1736 83.4066 32.1305 83.3634 32.0441 83.2769C31.9578 83.1904 31.8715 83.1472 31.742 83.1472H31.6989L30.3177 83.2337L30.4472 83.0607C30.4904 83.0175 30.4904 82.9742 30.4904 82.931C30.4904 82.8878 30.4904 82.8445 30.4472 82.8013C30.404 82.7581 30.3609 82.7148 30.3177 82.6716C30.2746 82.6283 30.2746 82.6283 30.2314 82.6283L31.9578 82.5419C32.001 82.5419 32.0441 82.5419 32.0873 82.5419C32.1305 82.5419 32.1305 82.4986 32.1305 82.4554C32.1305 82.4121 32.1305 82.3689 32.0873 82.3257C32.0441 82.2824 32.001 82.196 31.9147 82.1527L32.1305 80.7259C32.1305 80.6826 32.1305 80.6394 32.1736 80.6394C32.1736 80.5961 32.2168 80.5961 32.2168 80.5529C32.2168 80.5529 32.2168 80.5097 32.1736 80.4664C32.1736 80.4232 32.1305 80.3799 32.0441 80.3367C32.001 80.2935 31.9147 80.2502 31.8283 80.2502H31.742L29.6703 80.3799C29.6271 80.3799 29.5408 80.3367 29.4977 80.3367C29.4545 80.3367 29.4113 80.2935 29.3682 80.2935C29.4113 80.2502 29.4545 80.1638 29.4977 80.1205C29.5408 80.0773 29.584 79.9908 29.6271 79.9476L32.4758 79.7746C32.5621 79.7746 32.6052 79.7314 32.6052 79.6881C32.6052 79.6449 32.5621 79.6017 32.5189 79.5584C32.4757 79.5152 32.4326 79.4287 32.3463 79.3855C32.2599 79.3422 32.1736 79.299 32.1305 79.299C32.0873 79.299 32.0873 79.299 32.0441 79.299C31.9578 79.3422 31.8715 79.3422 31.8283 79.3422C31.742 79.3422 31.6989 79.3422 31.6125 79.3855L29.8861 79.5152C29.9724 79.3422 30.1019 79.126 30.1451 78.9531C30.1451 78.9098 30.1019 78.8234 30.0156 78.7801C29.9293 78.7369 29.8429 78.6937 29.7566 78.6504C29.6703 78.6072 29.584 78.6072 29.584 78.6072C29.5408 78.6072 29.4977 78.6504 29.4977 78.6937V78.7369C29.4977 78.7801 29.4977 78.7801 29.4977 78.8234V78.8666C29.4977 78.9098 29.4545 79.0396 29.4113 79.2125C29.3682 79.3855 29.2819 79.6017 29.1524 79.9043C29.0229 80.1638 28.8503 80.4664 28.6345 80.8123C28.5913 80.7691 28.5481 80.6826 28.505 80.6394C28.4186 80.5961 28.3755 80.5529 28.2892 80.5529H28.246H28.2028C28.1597 80.5529 28.0734 80.5961 28.0302 80.5961C27.987 80.5961 27.9439 80.5961 27.9007 80.5961L27.167 80.6394V79.9476C27.3396 79.9043 27.5123 79.8178 27.6849 79.7746C27.8576 79.7314 28.0302 79.6449 28.2028 79.5584C28.246 79.5584 28.246 79.5152 28.246 79.4719C28.246 79.3855 28.2028 79.3422 28.1597 79.2558C28.1165 79.1693 28.0734 79.126 27.987 79.0396C27.9439 78.9963 27.8576 78.9531 27.8576 78.9531C27.8576 78.9531 27.7712 78.9963 27.7712 79.0396C27.7281 79.0828 27.7281 79.126 27.6849 79.1693C27.6418 79.2125 27.5986 79.2125 27.5554 79.2558C27.3396 79.3855 27.0375 79.5584 26.6922 79.6881C26.3469 79.8611 25.9585 79.9908 25.5269 80.1205C25.3974 80.1638 25.3542 80.207 25.3542 80.2502C25.3542 80.2935 25.3974 80.3367 25.4837 80.3367C25.5269 80.3367 25.5269 80.3367 25.57 80.3367C25.7858 80.2935 25.9585 80.2502 26.1311 80.207C26.3038 80.1638 26.4764 80.1205 26.6922 80.0773V80.6826L25.6132 80.7691H25.57C25.57 80.7691 25.5269 80.7691 25.4837 80.7691C25.3974 80.7691 25.2679 80.7691 25.1384 80.7259C25.0953 80.7259 25.0953 80.7259 25.0953 80.7691V80.8123C25.0953 80.8556 25.1384 80.942 25.1816 80.9853C25.2248 81.0285 25.2679 81.115 25.3111 81.1582C25.3542 81.2015 25.3542 81.2015 25.3974 81.2015C25.4406 81.2015 25.4837 81.2015 25.5269 81.2015C25.57 81.2015 25.57 81.2015 25.6132 81.2015C25.6564 81.2015 25.6564 81.2015 25.6995 81.2015L26.4333 81.1582C26.2175 81.5041 25.9585 81.85 25.6995 82.1527C25.4406 82.4554 25.1816 82.7148 24.9226 82.9742C24.8363 83.0607 24.7932 83.1472 24.7932 83.1904C24.7932 83.2337 24.7932 83.2337 24.8363 83.2337C24.8363 83.2337 24.8795 83.2337 24.9226 83.2337C24.9658 83.2337 24.9658 83.2337 25.009 83.1904L25.0521 83.1472C25.3542 82.9742 25.6132 82.7581 25.829 82.5851C26.0448 82.3689 26.2175 82.196 26.3469 82.023C26.4764 81.85 26.5627 81.7203 26.6059 81.5906C26.6059 81.7636 26.6059 81.8933 26.6059 81.9365V82.1527C26.6059 82.2824 26.6059 82.4554 26.5627 82.6283C26.5627 82.6716 26.5627 82.6716 26.5627 82.6716V82.7148C26.5627 82.8013 26.6059 82.8878 26.6922 82.931C26.7785 82.9742 26.8649 83.0175 26.908 83.0175C26.9943 83.0175 27.0375 82.931 27.0375 82.8013V81.6339C27.2101 81.7636 27.426 81.9365 27.6418 82.1095C27.8576 82.2824 28.0302 82.4554 28.2028 82.5851C28.246 82.6283 28.3323 82.6716 28.3755 82.6716C28.4186 82.6716 28.4618 82.6283 28.505 82.5851C28.5481 82.5419 28.5913 82.4554 28.6345 82.3257C28.6345 82.2824 28.5913 82.196 28.505 82.1527C28.4186 82.0662 28.2892 81.9798 28.1597 81.8933C28.0302 81.8068 27.9007 81.7203 27.7712 81.5906C27.6418 81.5041 27.5123 81.4177 27.426 81.3744C27.3396 81.3312 27.2533 81.2879 27.2101 81.2879C27.167 81.2879 27.1238 81.3312 27.0807 81.3744V81.0718C27.2533 81.0718 27.426 81.0285 27.5554 81.0285C27.6849 81.0285 27.8144 80.9853 27.9439 80.9853C28.0734 80.9853 28.2028 80.9853 28.2892 80.942C28.3755 80.942 28.4186 80.942 28.4186 80.942L28.3323 81.0718C28.2892 81.1582 28.246 81.2015 28.246 81.2879C28.246 81.3312 28.246 81.3312 28.2892 81.3312C28.3323 81.3312 28.3755 81.2879 28.4618 81.2447C28.5481 81.2015 28.5913 81.115 28.6776 81.0285C28.7639 80.942 28.8071 80.8988 28.8934 80.8123C28.9366 80.7691 28.9797 80.7259 28.9797 80.6826C28.9797 80.7259 28.9797 80.7691 29.0229 80.8123C29.0229 80.8556 29.0229 80.8988 29.0229 80.942L29.1092 82.1527V82.2824C29.1092 82.4121 29.1092 82.5419 29.0661 82.6716C29.0661 82.6716 29.0661 82.7148 29.0661 82.758C29.0661 82.8013 29.1092 82.8878 29.1955 82.931C29.2819 83.0175 29.3682 83.0607 29.4545 83.0607C29.5408 83.0607 29.584 83.0175 29.584 82.8878V82.8445H29.7566C29.7566 82.931 29.7135 83.0607 29.6271 83.1904C29.584 83.3201 29.4977 83.4499 29.4113 83.5796C29.3682 83.5363 29.325 83.4931 29.2819 83.4931C29.2387 83.4931 29.1524 83.4931 29.1092 83.5363C29.0661 83.5796 29.0229 83.6228 28.9797 83.6661C28.9797 83.7093 28.9797 83.7093 28.9797 83.7525C28.9797 83.7958 29.0229 83.839 29.1524 83.9255C29.0229 84.0552 28.8934 84.2282 28.8071 84.3579C28.6776 84.4876 28.5481 84.6173 28.4618 84.747C28.3755 84.8335 28.2892 84.92 28.2892 84.9632C28.2892 85.0064 28.2892 85.0064 28.3323 85.0064C28.4186 85.0064 28.505 84.9632 28.6345 84.8767C28.7639 84.7903 28.8934 84.7038 29.0229 84.5741C29.1524 84.4443 29.2819 84.3579 29.3682 84.2714C29.6271 84.5741 29.843 84.8767 30.1019 85.1362C29.7998 85.3956 29.4977 85.6118 29.1092 85.828C28.7639 86.0442 28.3755 86.2171 27.9439 86.3901C27.8144 86.4333 27.7712 86.4765 27.7712 86.563C27.7712 86.6063 27.8144 86.6063 27.9007 86.6063C27.9439 86.6063 28.0734 86.563 28.246 86.5198C28.4186 86.4765 28.6345 86.3901 28.8934 86.3036C29.1524 86.2171 29.4113 86.0874 29.6703 85.9577C29.9293 85.828 30.1882 85.655 30.4472 85.4388C30.663 85.6118 30.8788 85.7847 31.1378 85.9144C31.3536 86.0442 31.5694 86.1739 31.7852 86.2604C32.001 86.3468 32.1305 86.4333 32.2599 86.4765C32.3894 86.5198 32.4758 86.563 32.4758 86.563C32.6916 86.3468 32.7347 86.3468 32.821 86.3036ZM29.6271 80.8123L31.5694 80.7259L31.5262 81.2015L29.6271 81.2879V80.8123ZM29.7135 82.2824L29.6703 81.7203L31.4831 81.6339L31.4399 82.196L29.7135 82.2824ZM30.663 84.6173C30.404 84.3579 30.1451 84.0984 29.8861 83.7525L29.9293 83.7093L31.4831 83.6228C31.3536 83.7958 31.2241 83.9687 31.0946 84.1417C30.9651 84.3146 30.7925 84.4443 30.663 84.6173Z" fill="white"/>
<path d="M52.3297 81.5041C52.2865 81.4609 52.2002 81.4177 52.157 81.3744C52.0707 81.3312 52.0275 81.3312 52.0275 81.3312C52.0275 81.3312 51.9844 81.3312 51.9412 81.3312C51.8981 81.3312 51.8549 81.3744 51.8117 81.3744C51.7686 81.3744 51.7254 81.3744 51.6391 81.4177L50.3443 81.5041H50.258C50.1285 81.5041 50.0422 81.5041 49.9558 81.4609H49.9127C49.8695 81.4609 49.8695 81.4609 49.8695 81.5041C49.8695 81.5474 49.8695 81.5906 49.9127 81.6771C49.9558 81.7636 49.999 81.85 50.0853 81.9365C50.1285 81.9798 50.2148 81.9798 50.3011 81.9798C50.3443 81.9798 50.3443 81.9798 50.3874 81.9798C50.4306 81.9798 50.4306 81.9798 50.4738 81.9798L52.2002 81.8933C52.2433 81.8933 52.2865 81.8933 52.3297 81.85C52.3728 81.8068 52.3728 81.8068 52.3728 81.7636C52.416 81.6339 52.3728 81.5906 52.3297 81.5041Z" fill="white"/>
<path d="M50.1285 82.931C50.1716 82.9742 50.258 82.9742 50.3443 82.9742C50.3874 82.9742 50.3874 82.9742 50.4306 82.9742C50.4738 82.9742 50.4738 82.9742 50.5169 82.9742L52.157 82.8878C52.2002 82.8878 52.2433 82.8878 52.2865 82.8445C52.3297 82.8013 52.3297 82.8013 52.3297 82.758C52.3297 82.7148 52.2865 82.6716 52.2433 82.5851C52.2002 82.5419 52.157 82.4986 52.0707 82.4554C52.0275 82.4121 51.9412 82.4121 51.9412 82.4121H51.8981H51.8549C51.7686 82.4554 51.6391 82.4554 51.5528 82.4554L50.3443 82.4986H50.258C50.1285 82.4986 50.0422 82.4986 49.9558 82.4554H49.9127C49.8695 82.4554 49.8695 82.4554 49.8695 82.4986C49.8695 82.5419 49.9127 82.6283 49.9558 82.6716C49.999 82.8013 50.0853 82.8445 50.1285 82.931Z" fill="white"/>
<path d="M57.1637 85.8712C56.7321 85.6983 56.3005 85.5253 55.9552 85.3091C55.5667 85.0929 55.2214 84.8767 54.9193 84.6173C55.1351 84.4011 55.3078 84.1417 55.4804 83.9255C55.6531 83.7093 55.7825 83.4931 55.8689 83.2769C55.9552 83.0607 56.0415 82.931 56.0847 82.8013C56.1278 82.6716 56.171 82.6283 56.171 82.5851C56.171 82.4986 56.1278 82.4554 56.0847 82.4122C55.9983 82.3689 55.912 82.3257 55.8257 82.3257H55.7394L53.3655 82.4554C53.3224 82.4554 53.3224 82.4554 53.2792 82.4554C53.2361 82.4554 53.2361 82.4554 53.1929 82.4554C53.1066 82.4554 52.9771 82.4554 52.8908 82.4122H52.8476C52.8044 82.4122 52.8044 82.4121 52.8044 82.4554C52.8044 82.4986 52.8044 82.5419 52.8476 82.6283C52.8908 82.7148 52.9339 82.8013 53.0202 82.8445C53.0634 82.8878 53.0634 82.8878 53.1497 82.8878C53.1929 82.8878 53.2361 82.8878 53.2792 82.8878C53.3224 82.8878 53.3655 82.8878 53.4087 82.8878C53.4519 82.8878 53.495 82.8878 53.5382 82.8878L55.4804 82.7581C55.3941 83.0607 55.2646 83.3201 55.092 83.5363C54.9193 83.7958 54.7467 84.012 54.574 84.2282C54.4014 84.0552 54.2287 83.8823 54.0993 83.7093C53.9698 83.5363 53.7971 83.3634 53.6677 83.1472C53.6245 83.0607 53.5382 83.0175 53.495 83.0175C53.4519 83.0175 53.3655 83.0607 53.3224 83.104C53.2361 83.1472 53.2361 83.2337 53.2361 83.2337C53.2361 83.2769 53.2792 83.4066 53.4087 83.5363C53.495 83.6661 53.6677 83.839 53.7971 84.012C53.9698 84.1849 54.0993 84.3579 54.2719 84.5308C53.9698 84.8335 53.6677 85.0929 53.3224 85.3523C53.0202 85.6118 52.675 85.828 52.3728 86.0009C52.2002 86.0874 52.1139 86.1739 52.1139 86.2604C52.1139 86.3036 52.157 86.3036 52.2002 86.3036C52.2434 86.3036 52.416 86.2604 52.6318 86.1739C52.8476 86.0874 53.1497 85.9144 53.495 85.7415C53.8403 85.5253 54.1856 85.2659 54.574 84.8767C54.9193 85.1794 55.2646 85.4388 55.6099 85.655C55.9552 85.8712 56.2141 86.0442 56.4731 86.1306C56.6889 86.2604 56.8184 86.3036 56.8615 86.3036C56.9047 86.3036 56.9479 86.2604 57.0342 86.2171C57.1205 86.1739 57.1637 86.1306 57.25 86.0874C57.2932 86.0442 57.3363 86.0009 57.3363 85.9577C57.3363 85.9577 57.2932 85.9145 57.1637 85.8712Z" fill="white"/>
<path d="M50.9485 79.6449C51.1212 79.7314 51.337 79.8611 51.5096 79.9908C51.5959 80.034 51.6391 80.0773 51.6823 80.0773C51.7254 80.0773 51.8117 80.034 51.8549 79.9908C51.8981 79.9476 51.9412 79.8611 51.9412 79.8179C51.9412 79.7746 51.9844 79.7314 51.9844 79.7314C51.9844 79.6881 51.9412 79.6017 51.8549 79.5584C51.7686 79.472 51.6391 79.4287 51.5096 79.3422C51.3801 79.2558 51.2075 79.2125 51.078 79.126C50.9485 79.0396 50.819 78.9963 50.6896 78.9963C50.6032 78.9531 50.5169 78.9531 50.5169 78.9531C50.4738 78.9531 50.4306 78.9963 50.3874 79.0396C50.3443 79.0828 50.3443 79.126 50.3011 79.1693C50.3011 79.2125 50.3011 79.2558 50.3011 79.2558C50.3011 79.3422 50.3443 79.3855 50.4738 79.4287C50.5601 79.4287 50.7327 79.5584 50.9485 79.6449Z" fill="white"/>
<path d="M52.416 83.9255C52.416 83.8822 52.4592 83.8822 52.4592 83.839C52.4592 83.7525 52.416 83.7093 52.3297 83.6228C52.2434 83.5363 52.157 83.4931 52.1139 83.4931H52.0707H52.0275L50.6032 83.5796C50.3011 83.4499 50.0853 83.4066 49.999 83.4066C49.9558 83.4066 49.9127 83.4066 49.9127 83.4499V83.4931C49.9127 83.5363 49.9558 83.5363 49.9558 83.5796C49.999 83.7093 50.0422 83.839 50.0853 84.0552L50.1716 85.1794C50.1716 85.2226 50.1716 85.2226 50.1716 85.2659V85.3523C50.1716 85.3956 50.1716 85.4388 50.1716 85.4821C50.1716 85.5253 50.1716 85.5685 50.1716 85.6118V85.655V85.6982C50.1716 85.7847 50.2148 85.8712 50.258 85.9144C50.3011 85.9577 50.3874 86.0009 50.4306 86.0009C50.5169 86.0009 50.5601 86.0442 50.5601 86.0442C50.6896 86.0442 50.7327 86.0009 50.7327 85.8712V85.828V85.655L52.2865 85.6118C52.3297 85.6118 52.416 85.6118 52.4592 85.5685C52.5023 85.5685 52.5455 85.5253 52.5455 85.4821C52.5455 85.4388 52.4592 85.3091 52.3297 85.1361L52.4592 84.0552C52.3728 84.012 52.3728 83.9687 52.416 83.9255ZM51.7254 85.1361L50.6032 85.1794L50.5169 84.0984L51.8117 84.0552L51.7254 85.1361Z" fill="white"/>
<path d="M49.7832 80.8988C49.8263 80.8988 49.8695 80.8988 49.9127 80.8988L52.7181 80.7259C52.7613 80.7259 52.8044 80.7259 52.8476 80.6826C52.8907 80.6394 52.8907 80.6394 52.8907 80.5961C52.8907 80.5529 52.8476 80.5097 52.8044 80.4664C52.7613 80.4232 52.6749 80.3367 52.6318 80.2935C52.5455 80.2502 52.5023 80.207 52.4591 80.207C52.4591 80.207 52.416 80.207 52.3728 80.207C52.3297 80.2502 52.2433 80.2502 52.2002 80.2502C52.157 80.2502 52.0707 80.2502 52.0275 80.2935L49.6969 80.4232H49.5674C49.4379 80.4232 49.3516 80.4232 49.2652 80.38H49.2221C49.1789 80.38 49.1789 80.38 49.1789 80.4232C49.1789 80.4664 49.1789 80.5097 49.2221 80.5961C49.2652 80.6826 49.3084 80.7259 49.3516 80.8123C49.3947 80.8988 49.481 80.8988 49.5674 80.8988H49.6105H49.7832Z" fill="white"/>
<path d="M53.0634 81.4177C52.9771 81.6339 52.8045 81.8933 52.5887 82.1527C52.5024 82.2392 52.4592 82.3257 52.4592 82.3689C52.4592 82.4121 52.5024 82.4121 52.5455 82.4121C52.5887 82.4121 52.675 82.3689 52.7613 82.3257C52.8908 82.2392 53.0203 82.1527 53.1498 82.023C53.2792 81.8933 53.4087 81.7203 53.5382 81.5041C53.6677 81.288 53.754 81.0718 53.7972 80.8123C53.8403 80.6826 53.8403 80.5097 53.8403 80.3367C53.8403 80.1638 53.8403 79.9908 53.8403 79.8179L55.0057 79.7314V81.288C55.0057 81.4609 55.0488 81.5906 55.1352 81.6771C55.2215 81.7636 55.351 81.8068 55.4804 81.8501C55.6099 81.8501 55.7826 81.8933 55.9121 81.8933H56.3437C56.43 81.8933 56.5163 81.8933 56.6458 81.8501C56.7753 81.8501 56.8616 81.8068 56.9047 81.8068C56.9479 81.8068 56.9911 81.7636 57.0342 81.7636C57.0774 81.7203 57.0774 81.7203 57.0774 81.6771C57.0774 81.6339 57.0342 81.5474 56.9911 81.5041C56.9479 81.4609 56.8616 81.3744 56.8184 81.3312C56.7321 81.288 56.6889 81.2447 56.6458 81.288H56.6026C56.5595 81.3312 56.4731 81.3312 56.3868 81.3744C56.3005 81.3744 56.2573 81.3744 56.2142 81.3744C56.171 81.3744 56.0847 81.3744 56.0415 81.3744H55.8689C55.6962 81.3744 55.6099 81.3744 55.5668 81.3312C55.5236 81.3312 55.4804 81.288 55.4804 81.2015V81.1582L55.5668 79.6449C55.5668 79.6017 55.5668 79.6017 55.5668 79.5584C55.5668 79.5152 55.5668 79.5152 55.5668 79.4719C55.5668 79.4287 55.5236 79.3855 55.4804 79.299C55.4373 79.2125 55.351 79.1693 55.2215 79.1693H55.1352C55.092 79.1693 55.092 79.1693 55.0488 79.1693L53.754 79.299C53.6245 79.2557 53.4951 79.2125 53.4087 79.1693C53.3224 79.126 53.2361 79.126 53.1929 79.126C53.1498 79.126 53.1066 79.126 53.1066 79.1693C53.1066 79.2125 53.1066 79.2557 53.1498 79.299C53.1498 79.3422 53.1929 79.4287 53.1929 79.4719C53.1929 79.5584 53.1929 79.6449 53.1929 79.7314C53.1929 80.034 53.1929 80.3367 53.1498 80.5529C53.2361 80.942 53.1929 81.1582 53.0634 81.4177Z" fill="white"/>
<path d="M81.7221 81.6771C81.7652 81.6771 81.7653 81.6339 81.7653 81.5906C81.7653 81.5474 81.7221 81.4609 81.6789 81.4177C81.6358 81.3312 81.5494 81.2879 81.4631 81.2447C81.3768 81.2015 81.3336 81.1582 81.3336 81.1582H81.2905H81.2473C81.2042 81.2015 81.1178 81.2015 81.0747 81.2015C80.9884 81.2015 80.9452 81.2015 80.8589 81.2447L79.7367 81.3312V78.9098C79.7367 78.8234 79.7367 78.7801 79.6935 78.7369C79.6504 78.6937 79.5641 78.6504 79.4346 78.6072C79.3051 78.5639 79.2188 78.5639 79.1756 78.5639C79.0893 78.5639 79.0461 78.6072 79.0461 78.6504C79.0461 78.6936 79.0461 78.6937 79.0893 78.7369C79.1325 78.7801 79.1756 78.8666 79.1756 78.9098C79.1756 78.9531 79.1756 79.0396 79.1756 79.0828V81.3312L77.8376 81.4177H77.7513C77.7081 81.4177 77.6218 81.4177 77.5787 81.4177C77.5355 81.4177 77.4492 81.3744 77.406 81.3744C77.3629 81.3744 77.3629 81.3744 77.3629 81.3744C77.3197 81.3744 77.3197 81.3744 77.3197 81.4177C77.3197 81.4177 77.3197 81.4177 77.3197 81.4609C77.3197 81.4609 77.3197 81.4609 77.3197 81.5041C77.3629 81.7203 77.4492 81.85 77.5355 81.8933C77.6218 81.9365 77.7513 81.9798 77.924 81.9798H78.0103C78.0534 81.9798 78.0534 81.9798 78.0966 81.9798L79.2188 81.8933V85.4388C79.2188 85.5253 79.2188 85.6118 79.2188 85.6982C79.2188 85.7847 79.1756 85.8712 79.1756 85.9577C79.1756 86.0009 79.1756 86.0009 79.1756 86.0442C79.1756 86.1306 79.2188 86.2171 79.2619 86.3036C79.3483 86.3468 79.3914 86.4333 79.4777 86.4333C79.5641 86.4765 79.6072 86.4765 79.6072 86.4765C79.7367 86.4765 79.7799 86.3901 79.7799 86.2603V81.8933L81.6358 81.7636C81.6358 81.7203 81.7221 81.7203 81.7221 81.6771Z" fill="white"/>
<path d="M76.0681 79.3855C75.9386 79.299 75.8091 79.2558 75.6365 79.2125C75.507 79.1693 75.3775 79.0828 75.248 79.0396C75.1185 78.9963 75.0322 78.9963 74.989 78.9963C74.9459 78.9963 74.9027 79.0396 74.8596 79.0828C74.8164 79.126 74.7732 79.2125 74.7732 79.299C74.7732 79.3855 74.8164 79.4287 74.9459 79.4719C75.1185 79.5584 75.3343 79.6449 75.5501 79.7746C75.7659 79.9043 75.9386 79.9908 76.1544 80.1205C76.2407 80.1638 76.2839 80.207 76.327 80.207C76.4133 80.207 76.4997 80.1205 76.5428 79.9908C76.586 79.9043 76.586 79.8611 76.586 79.8179C76.586 79.7314 76.5428 79.6881 76.4133 79.6017C76.327 79.5152 76.2407 79.4287 76.0681 79.3855Z" fill="white"/>
<path d="M77.0607 81.8501C77.0607 81.8068 77.0176 81.7636 76.9744 81.6771C76.9312 81.5906 76.8449 81.5906 76.8018 81.5474C76.7154 81.5042 76.6723 81.5042 76.6723 81.5042H76.6291H76.586C76.5428 81.5042 76.4565 81.5474 76.4133 81.5474C76.3701 81.5474 76.327 81.5474 76.2838 81.5474L74.8595 81.6339H74.7732C74.6869 81.6339 74.6006 81.6339 74.5142 81.5906H74.4711C74.4279 81.5906 74.4279 81.5906 74.4279 81.6339C74.4279 81.6339 74.4279 81.6771 74.4711 81.7636C74.5142 81.8501 74.5574 81.9365 74.6006 81.9798C74.6869 82.0663 74.7732 82.1095 74.9027 82.1095C74.9458 82.1095 74.9458 82.1095 74.989 82.1095C75.0322 82.1095 75.0322 82.1095 75.0753 82.1095L76.9312 81.9798C76.9744 81.9798 77.0176 81.9798 77.0607 81.9365C77.0607 81.9365 77.0607 81.8933 77.0607 81.8501Z" fill="white"/>
<path d="M77.4492 80.8123C77.4923 80.8123 77.5355 80.8123 77.5786 80.7691C77.6218 80.7691 77.6218 80.7259 77.6218 80.6826C77.6218 80.6394 77.5786 80.5961 77.5355 80.5097C77.4923 80.4664 77.406 80.38 77.3628 80.3367C77.2765 80.2935 77.2334 80.2502 77.1902 80.2502C77.147 80.2502 77.147 80.2502 77.1039 80.2502C77.0607 80.2502 77.0176 80.2935 76.9744 80.2935C76.9312 80.2935 76.8449 80.2935 76.8017 80.3367L74.1689 80.5097H74.0395C73.9531 80.5097 73.8237 80.5097 73.7805 80.4664H73.7373C73.6942 80.4664 73.6942 80.4664 73.6942 80.5097C73.6942 80.5961 73.7373 80.6826 73.7805 80.7691C73.8237 80.8556 73.91 80.8988 73.91 80.9421C73.9531 80.9853 74.0395 80.9853 74.1689 80.9853H74.2553C74.2984 80.9853 74.3416 80.9853 74.3416 80.9853L77.4492 80.8123Z" fill="white"/>
<path d="M77.1902 84.012C77.1902 83.9687 77.2334 83.9687 77.2334 83.9255C77.2334 83.839 77.1902 83.7958 77.1039 83.7093C77.0176 83.6228 76.9313 83.6228 76.8449 83.6228H76.7586L75.0322 83.7093C74.7301 83.5796 74.5143 83.5363 74.4279 83.5363C74.3848 83.5363 74.3416 83.5363 74.3416 83.5796C74.3416 83.6228 74.3416 83.6661 74.3848 83.7093C74.4279 83.7958 74.428 83.8823 74.4711 83.9255C74.4711 84.012 74.5143 84.0984 74.5143 84.1849L74.6006 85.2226C74.6006 85.2659 74.6006 85.2659 74.6006 85.2659V85.3091C74.6006 85.3524 74.6006 85.3956 74.6006 85.4388C74.6006 85.4821 74.6006 85.5253 74.6006 85.5685C74.6006 85.5685 74.6006 85.6118 74.6006 85.655C74.6006 85.7415 74.6438 85.7847 74.6869 85.828C74.7301 85.8712 74.8164 85.9145 74.8596 85.9577C74.9459 86.0009 74.989 86.0009 74.989 86.0009C75.1185 86.0009 75.1617 85.9145 75.1617 85.7847V85.7415V85.6118L76.9744 85.5685C77.0607 85.5685 77.1039 85.5685 77.1471 85.5253C77.1902 85.5253 77.2334 85.4821 77.2334 85.4388C77.2334 85.3956 77.1902 85.2659 77.0608 85.0929L77.1902 84.012C77.1471 84.0552 77.1471 84.0552 77.1902 84.012ZM76.4997 85.1794L75.1185 85.2226L75.0322 84.1849L76.586 84.1417L76.4997 85.1794Z" fill="white"/>
<path d="M76.6291 82.4986C76.586 82.4986 76.5428 82.4986 76.4996 82.5419C76.4133 82.5851 76.2838 82.5851 76.1975 82.5851L74.9027 82.6283H74.8595C74.8164 82.6283 74.7301 82.6283 74.6869 82.6283C74.6437 82.6283 74.6006 82.6283 74.5574 82.5851H74.5143C74.4711 82.5851 74.4711 82.5851 74.4711 82.6283C74.4711 82.6283 74.4711 82.6716 74.5143 82.7581C74.5574 82.8445 74.6006 82.931 74.6437 82.9742C74.7301 83.0607 74.8164 83.104 74.9459 83.104C74.989 83.104 74.989 83.104 75.0322 83.104C75.0753 83.104 75.0753 83.104 75.1185 83.104L76.8018 83.0175C76.8449 83.0175 76.8881 83.0175 76.9313 82.9742C76.9744 82.931 76.9744 82.931 76.9744 82.8878C76.9744 82.8445 76.9313 82.8013 76.8881 82.7581C76.8449 82.7148 76.8018 82.6283 76.7155 82.5851C76.7155 82.5419 76.6723 82.4986 76.6291 82.4986Z" fill="white"/>
<path d="M2.52228 90.0221C2.47912 90.0221 2.43596 90.0221 2.3928 90.0221C2.34964 90.0221 2.30648 90.0221 2.26332 90.0653C2.26332 90.0653 2.26332 90.0653 2.26332 90.1086V90.1518C2.26332 90.2383 2.22016 90.368 2.09067 90.5842C1.96119 90.8004 1.78855 91.103 1.48642 91.4922C1.27062 91.1463 1.01166 90.7571 0.795854 90.368C0.752693 90.2383 0.709532 90.195 0.666372 90.1518C0.623211 90.1086 0.58005 90.0653 0.58005 90.0653C0.53689 90.0653 0.53689 90.0221 0.493729 90.0221C0.407408 90.0221 0.364247 90.0653 0.321087 90.1086C0.277926 90.1518 0.234765 90.2383 0.191605 90.368C0.277926 90.368 0.407408 90.4977 0.58005 90.7571C0.752693 91.0166 0.968496 91.3625 1.27062 91.8381C1.27062 92.0543 1.27062 92.2705 1.22746 92.4867C1.22746 92.7029 1.22746 92.8326 1.22746 92.8326C1.22746 92.919 1.22746 93.0055 1.27062 93.0488C1.31378 93.092 1.35694 93.092 1.4001 93.092C1.44326 93.092 1.52959 93.092 1.57275 93.0488C1.61591 93.0488 1.70223 93.0055 1.74539 92.9623C1.70223 92.8758 1.65907 92.7893 1.65907 92.6164C1.65907 92.4867 1.61591 92.2705 1.61591 92.011C1.61591 91.9678 1.61591 91.9246 1.61591 91.8813C1.61591 91.7948 1.61591 91.7516 1.61591 91.7516C1.74539 91.5787 1.91803 91.3192 2.13383 91.0166C2.47912 90.5409 2.65176 90.2383 2.65176 90.1518C2.65176 90.1086 2.65176 90.0653 2.6086 90.0221C2.6086 90.0221 2.56544 90.0221 2.52228 90.0221Z" fill="white"/>
<path d="M10.1185 92.2272C10.1185 92.0975 10.1185 91.8813 10.1185 91.7084C10.1185 91.4922 10.1185 91.3625 10.1185 91.3192C10.1185 91.1895 10.1185 91.1031 10.0754 91.0598C10.0322 91.0166 9.98905 91.0166 9.94589 91.0166C9.90273 91.0166 9.85957 91.0166 9.81641 91.0598C9.77325 91.0598 9.73009 91.103 9.64377 91.1463C9.68693 91.2328 9.73009 91.3192 9.73009 91.449C9.73009 91.5787 9.77325 91.7516 9.77325 91.9246C9.77325 92.0543 9.77325 92.1408 9.77325 92.2705C9.77325 92.357 9.77325 92.4434 9.77325 92.5732C9.68693 92.7029 9.60061 92.7893 9.47113 92.8326C9.3848 92.8758 9.25532 92.9191 9.12584 92.9191C8.9532 92.9191 8.86688 92.8758 8.78056 92.7461C8.73739 92.6596 8.69423 92.4434 8.69423 92.184C8.69423 92.0543 8.69423 91.8813 8.69423 91.7084C8.69423 91.4922 8.69423 91.3625 8.69423 91.3192C8.69423 91.2328 8.69423 91.1895 8.65107 91.1463C8.60791 91.103 8.56475 91.103 8.52159 91.103C8.47843 91.103 8.43527 91.103 8.39211 91.1463C8.34895 91.1463 8.30579 91.1895 8.21947 91.2328C8.26263 91.276 8.26263 91.3625 8.30579 91.449C8.30579 91.5354 8.34895 91.6219 8.34895 91.7516C8.34895 91.8381 8.34895 91.9678 8.34895 92.1408C8.34895 92.3137 8.34895 92.4002 8.34895 92.4434C8.34895 92.7029 8.39211 92.9191 8.52159 93.0488C8.65107 93.1785 8.82372 93.265 9.03952 93.265C9.169 93.265 9.29848 93.2217 9.42797 93.1785C9.55745 93.1352 9.64377 93.0488 9.73009 92.9191C9.73009 93.0488 9.73009 93.1352 9.77325 93.1785C9.81641 93.2217 9.81641 93.2217 9.90273 93.2217C9.94589 93.2217 9.98905 93.2217 10.0322 93.1785C10.0754 93.1785 10.1185 93.1352 10.2049 93.092C10.1617 93.0488 10.1185 92.9191 10.1185 92.8326C10.1185 92.6164 10.1185 92.4434 10.1185 92.2272Z" fill="white"/>
<path d="M18.3622 92.357C18.3622 92.3137 18.3622 92.2272 18.3622 92.1408C18.3622 92.0543 18.3622 92.0111 18.3622 92.0111C18.3622 91.7949 18.3622 91.6651 18.3191 91.5787C18.3191 91.4922 18.2759 91.4057 18.2327 91.3192C18.1896 91.1895 18.1033 91.1463 17.9738 91.0598C17.8443 91.0166 17.7148 90.9733 17.5853 90.9733C17.4559 90.9733 17.3695 90.9733 17.24 91.0166C17.1106 91.0598 17.0242 91.103 16.8948 91.1895C16.8948 91.103 16.8516 91.0598 16.8084 91.0166C16.7653 90.9733 16.7221 90.9733 16.6358 90.9733C16.5926 90.9733 16.5926 90.9733 16.5495 90.9733C16.5063 90.9733 16.5063 90.9733 16.4632 91.0166C16.5063 91.103 16.5063 91.1895 16.5495 91.3192C16.5495 91.4489 16.5926 91.5787 16.5926 91.7949C16.5926 92.0111 16.5926 92.2272 16.5495 92.4434C16.5495 92.6596 16.5063 92.7893 16.5063 92.8326C16.5063 92.9623 16.5063 93.0055 16.5495 93.0488C16.5926 93.092 16.6358 93.092 16.679 93.092C16.7221 93.092 16.7653 93.092 16.8084 93.0488C16.8516 93.0488 16.8948 93.0055 16.9811 92.9623C16.9379 92.8758 16.9379 92.7893 16.8948 92.6596C16.8948 92.5299 16.8516 92.4002 16.8516 92.2272C16.8516 92.184 16.8516 92.0975 16.8516 91.9246C16.8516 91.7516 16.8516 91.5787 16.8516 91.4057C16.9379 91.3192 17.0674 91.276 17.1537 91.2328C17.24 91.1895 17.3695 91.1895 17.4559 91.1895C17.6285 91.1895 17.758 91.2328 17.8443 91.3625C17.9306 91.4922 17.9738 91.6651 17.9738 91.9246C17.9738 92.0543 17.9738 92.2272 17.9738 92.4002C17.9738 92.5731 17.9738 92.7029 17.9738 92.7893C17.9738 92.8758 17.9738 92.9623 18.0169 93.0055C18.0601 93.0488 18.1033 93.0488 18.1464 93.0488C18.1896 93.0488 18.2327 93.0488 18.2759 93.0055C18.3191 93.0055 18.3622 92.9623 18.4485 92.919C18.4054 92.8758 18.3622 92.7893 18.3622 92.6596C18.3622 92.6596 18.3622 92.5299 18.3622 92.357Z" fill="white"/>
<path d="M26.2606 90.0221C26.1743 90.0221 26.0448 90.0221 25.829 90.0653C25.6132 90.0653 25.3974 90.1086 25.2248 90.1086C25.1816 90.1086 25.1384 90.1086 25.0521 90.1086C24.9658 90.1086 24.9226 90.1086 24.8363 90.1086C24.8795 90.195 24.8795 90.3248 24.8795 90.4112C24.8795 90.5409 24.8795 90.6707 24.8795 90.8004C24.8795 91.1895 24.8795 91.6219 24.8363 92.0975C24.8363 92.5299 24.7932 92.7893 24.7932 92.8326C24.7932 92.9623 24.7932 93.0055 24.8363 93.0488C24.8795 93.092 24.9226 93.092 25.009 93.092C25.0521 93.092 25.0953 93.092 25.1816 93.0488C25.2248 93.0488 25.3111 93.0055 25.3542 92.9623C25.3111 92.8758 25.2679 92.7461 25.2679 92.5299C25.2679 92.3137 25.2248 92.0543 25.2248 91.6651C25.2679 91.6651 25.3111 91.6651 25.3542 91.6651C25.3974 91.6651 25.4406 91.6651 25.4837 91.6651C25.6132 91.6651 25.7858 91.6651 25.9585 91.6651H26.088C26.2175 91.6651 26.3038 91.6651 26.3469 91.6219C26.3901 91.5787 26.4333 91.5354 26.4333 91.4489C26.4333 91.4057 26.4333 91.4057 26.4333 91.3625C26.4333 91.3192 26.4333 91.3192 26.3901 91.276C26.3038 91.3192 26.2175 91.3192 26.088 91.3192C25.9585 91.3192 25.7427 91.3192 25.4406 91.3192C25.3974 91.3192 25.3542 91.3192 25.3542 91.3192C25.3111 91.3192 25.3111 91.3192 25.2679 91.3192C25.2679 91.2328 25.2679 91.1463 25.2679 91.0166C25.2679 90.8436 25.2679 90.7139 25.2679 90.6707V90.368C25.3542 90.368 25.4406 90.368 25.5269 90.368C25.6132 90.368 25.6995 90.368 25.7427 90.368C25.9153 90.368 26.0448 90.368 26.1743 90.4112C26.3038 90.4545 26.3901 90.4545 26.4333 90.4977C26.4764 90.4545 26.4764 90.368 26.5196 90.3247C26.5196 90.2815 26.5627 90.2383 26.5627 90.195C26.5627 90.1518 26.5196 90.1086 26.4764 90.0653C26.4764 90.0221 26.3901 90.0221 26.2606 90.0221Z" fill="white"/>
<path d="M34.3748 92.2272C34.3748 92.0975 34.3748 91.8813 34.3748 91.7084C34.3748 91.4922 34.3748 91.3625 34.3748 91.3192C34.3748 91.1895 34.3748 91.1031 34.3317 91.0598C34.2885 91.0166 34.2453 91.0166 34.2022 91.0166C34.159 91.0166 34.1159 91.0166 34.0727 91.0598C34.0295 91.0598 33.9864 91.103 33.9001 91.1463C33.9432 91.2328 33.9864 91.3192 33.9864 91.449C33.9864 91.5787 34.0295 91.7516 34.0295 91.9246C34.0295 92.0543 34.0295 92.1408 34.0295 92.2705C34.0295 92.357 34.0295 92.4434 34.0295 92.5732C33.9432 92.7029 33.8569 92.7893 33.7274 92.8326C33.6411 92.8758 33.5116 92.9191 33.3821 92.9191C33.2095 92.9191 33.1232 92.8758 33.0368 92.7461C32.9937 92.6596 32.9505 92.4434 32.9505 92.184C32.9505 92.0543 32.9505 91.8813 32.9505 91.7084C32.9505 91.4922 32.9505 91.3625 32.9505 91.3192C32.9505 91.2328 32.9505 91.1895 32.9074 91.1463C32.8642 91.103 32.821 91.103 32.7779 91.103C32.7347 91.103 32.6916 91.103 32.6484 91.1463C32.6052 91.1463 32.5621 91.1895 32.4758 91.2328C32.5189 91.276 32.5189 91.3625 32.5621 91.449C32.5621 91.5354 32.6052 91.6219 32.6052 91.7516C32.6052 91.8381 32.6052 91.9678 32.6052 92.1408C32.6052 92.3137 32.6052 92.4002 32.6052 92.4434C32.6052 92.7029 32.6484 92.9191 32.7779 93.0488C32.9074 93.1785 33.08 93.265 33.2958 93.265C33.4253 93.265 33.5548 93.2217 33.6843 93.1785C33.8137 93.1352 33.9001 93.0488 33.9864 92.9191C33.9864 93.0488 33.9864 93.1352 34.0295 93.1785C34.0727 93.2217 34.0727 93.2217 34.159 93.2217C34.2022 93.2217 34.2453 93.2217 34.2885 93.1785C34.3317 93.1785 34.3748 93.1352 34.4611 93.092C34.418 93.0488 34.3748 92.9191 34.3748 92.8326C34.3748 92.6164 34.3748 92.4434 34.3748 92.2272Z" fill="white"/>
<path d="M43.007 90.4112C42.6617 90.1518 42.2301 90.0221 41.7121 90.0221C41.7121 90.0221 41.6258 90.0221 41.41 90.0221C41.2374 90.0221 41.0216 90.0221 40.8489 90.0221C40.8921 90.1086 40.9353 90.2815 40.9353 90.4977C40.9353 90.7139 40.9784 90.9733 40.9784 91.3192C40.9784 91.6219 40.9784 91.9678 40.9784 92.2705C40.9784 92.5731 40.9784 92.7461 40.9784 92.7893C40.9784 92.919 41.0216 93.0055 41.1079 93.0488C41.1942 93.092 41.3669 93.1352 41.669 93.1352C41.9279 93.1352 42.1869 93.092 42.4027 93.0055C42.6185 92.919 42.8343 92.8326 43.007 92.6596C43.1796 92.4867 43.3091 92.3137 43.4386 92.0975C43.5681 91.8813 43.5681 91.6651 43.5681 91.4489C43.5249 91.0166 43.3522 90.6707 43.007 90.4112ZM42.7048 92.4002C42.4459 92.6164 42.1438 92.7461 41.7553 92.7461C41.669 92.7461 41.6258 92.7461 41.5395 92.7461C41.4532 92.7461 41.41 92.7461 41.3237 92.7029C41.3237 92.5731 41.3237 92.4002 41.3237 92.2705C41.3237 92.1408 41.3237 91.9678 41.3237 91.8381C41.3237 91.6651 41.3237 91.4489 41.3237 91.2328C41.3237 91.0166 41.3237 90.7139 41.3237 90.4112C41.3669 90.4112 41.4532 90.4112 41.5395 90.368C41.6258 90.368 41.669 90.368 41.7553 90.368C42.1438 90.368 42.4459 90.4977 42.7048 90.7139C42.9638 90.9301 43.0501 91.2328 43.0501 91.5787C43.0933 91.9246 42.9638 92.184 42.7048 92.4002Z" fill="white"/>
<path d="M50.6896 90.9733C50.3874 90.9733 50.1285 91.0598 49.9558 91.276C49.7832 91.4922 49.6537 91.7516 49.6537 92.0975C49.6537 92.4002 49.74 92.6596 49.9558 92.8758C50.1285 93.0488 50.3874 93.1352 50.7327 93.1352C50.9054 93.1352 51.078 93.092 51.1643 93.0488C51.2938 93.0055 51.337 92.9191 51.337 92.8758C51.337 92.8326 51.337 92.8326 51.2938 92.7893C51.2938 92.7461 51.2507 92.7029 51.2075 92.7029C51.1212 92.7461 51.0349 92.7893 50.9485 92.8326C50.8622 92.8758 50.7759 92.8758 50.6464 92.8758C50.4306 92.8758 50.258 92.8326 50.1285 92.7029C49.999 92.5731 49.9558 92.4002 49.9558 92.184V92.1408C50.0853 92.1408 50.1716 92.184 50.3011 92.184C50.4306 92.184 50.5169 92.184 50.6464 92.184C50.9485 92.184 51.1643 92.1408 51.2938 92.0975C51.4233 92.011 51.4665 91.9246 51.4665 91.7516C51.4665 91.5354 51.3801 91.3625 51.2507 91.2328C51.1212 91.0166 50.9054 90.9733 50.6896 90.9733ZM51.0349 91.7949C50.9917 91.8381 50.8622 91.8381 50.6896 91.8381C50.5601 91.8381 50.4306 91.8381 50.3443 91.8381C50.2148 91.8381 50.1285 91.8381 50.0422 91.7949C50.0853 91.6219 50.1285 91.449 50.258 91.3625C50.3874 91.276 50.5169 91.1895 50.6464 91.1895C50.8191 91.1895 50.9054 91.2328 50.9917 91.3192C51.078 91.4057 51.1212 91.4922 51.1212 91.6219C51.1212 91.7084 51.1212 91.7949 51.0349 91.7949Z" fill="white"/>
<path d="M58.5448 90.9301C58.4153 90.9301 58.2858 90.9733 58.1563 91.0166C58.0269 91.0598 57.9405 91.1463 57.8542 91.276C57.8111 91.3192 57.7679 91.4057 57.7679 91.4489C57.7247 91.4922 57.7247 91.5787 57.7247 91.6219C57.7247 91.7948 57.8542 91.9678 58.07 92.1408C58.1132 92.184 58.1132 92.184 58.1132 92.184C58.1995 92.2705 58.2858 92.3137 58.2858 92.3569C58.329 92.4002 58.329 92.4867 58.329 92.5299C58.329 92.6164 58.2858 92.6596 58.2427 92.7028C58.1995 92.7461 58.1132 92.7893 57.9837 92.7893C57.9405 92.7893 57.8974 92.7893 57.8542 92.7893C57.8111 92.7893 57.7679 92.7461 57.7247 92.7461C57.6816 92.7893 57.6816 92.8326 57.6816 92.8758C57.6816 92.919 57.6816 92.919 57.6816 92.9623C57.6816 93.0055 57.6816 93.0488 57.7247 93.092C57.7679 93.1352 57.8111 93.1352 57.8974 93.1352C58.1132 93.1352 58.329 93.092 58.4585 92.9623C58.6311 92.8326 58.6743 92.7028 58.6743 92.4867C58.6743 92.4002 58.6743 92.3569 58.6311 92.2705C58.588 92.184 58.5448 92.1408 58.4585 92.0543C58.4153 92.011 58.4153 92.011 58.329 91.9678C58.1132 91.7948 58.0269 91.6651 58.0269 91.5787C58.0269 91.4922 58.07 91.4057 58.1563 91.3625C58.2427 91.3192 58.329 91.276 58.4585 91.276C58.5016 91.276 58.5448 91.276 58.5448 91.276C58.588 91.276 58.6311 91.276 58.6311 91.3192C58.6743 91.276 58.6743 91.2327 58.6743 91.1895C58.6743 91.1463 58.6743 91.1463 58.6743 91.103C58.6743 91.0598 58.6743 91.0166 58.6311 90.9733C58.588 90.9301 58.588 90.9301 58.5448 90.9301Z" fill="white"/>
<path d="M65.4505 92.2272C65.4505 92.0111 65.4505 91.7949 65.4505 91.5787C65.4505 91.3625 65.4505 91.2328 65.4505 91.1895C65.4505 91.103 65.4505 91.0598 65.4074 91.0166C65.3642 90.9733 65.3211 90.9733 65.2779 90.9733C65.2347 90.9733 65.1916 90.9733 65.1053 91.0166C65.0621 91.0166 64.9758 91.0598 64.9326 91.103C64.9758 91.1895 65.0189 91.276 65.0189 91.3625C65.0189 91.4922 65.0621 91.6219 65.0621 91.7949C65.0621 91.9678 65.0621 92.1408 65.0621 92.357C65.0621 92.5731 65.0621 92.7461 65.0621 92.7893C65.0621 92.9191 65.0621 92.9623 65.1053 93.0055C65.1484 93.0488 65.1916 93.0488 65.2347 93.0488C65.2779 93.0488 65.3211 93.0488 65.4074 93.0055C65.4937 92.9623 65.5369 92.9623 65.58 92.919C65.5369 92.8326 65.4937 92.7461 65.4937 92.6164C65.4505 92.5731 65.4505 92.4002 65.4505 92.2272Z" fill="white"/>
<path d="M65.1052 90.195C65.0621 90.2383 65.0189 90.3248 65.0189 90.4112C65.0189 90.4977 65.0189 90.5409 65.1052 90.5842C65.1484 90.6274 65.1916 90.6274 65.2779 90.6274C65.3642 90.6274 65.4505 90.5842 65.4937 90.5409C65.5369 90.4977 65.58 90.4112 65.58 90.3247C65.58 90.2383 65.5369 90.195 65.4937 90.1518C65.4505 90.1086 65.4074 90.0653 65.321 90.0653C65.1916 90.1086 65.1484 90.1086 65.1052 90.195Z" fill="white"/>
<path d="M73.7374 91.0166C73.7374 90.9733 73.7374 90.9301 73.7374 90.9301C73.7374 90.8869 73.6942 90.8869 73.6942 90.8436C73.6942 90.8869 73.6079 90.9301 73.5647 90.9301C73.4784 90.9733 73.3921 91.0166 73.2194 91.0598C73.1331 91.0166 73.0468 90.9733 73.0036 90.9733C72.9173 90.9733 72.8741 90.9301 72.7878 90.9301C72.5289 90.9301 72.3562 91.0166 72.1836 91.1463C72.0109 91.276 71.9678 91.449 71.9678 91.6652C71.9678 91.7949 72.0109 91.9246 72.0541 92.0111C72.1404 92.0975 72.2267 92.184 72.3562 92.2705C72.3131 92.3137 72.2699 92.4002 72.2267 92.4434C72.1836 92.4867 72.1836 92.5299 72.1836 92.5732C72.1836 92.6164 72.1836 92.6596 72.2267 92.6596C72.2267 92.7029 72.2699 92.7029 72.3131 92.7461C72.1404 92.8326 72.0541 92.9191 71.9678 93.0055C71.8814 93.092 71.8383 93.2217 71.8383 93.3514C71.8383 93.5676 71.9246 93.6974 72.0973 93.8271C72.2699 93.9568 72.4857 94 72.7447 94C73.0468 94 73.3058 93.9135 73.4784 93.7838C73.651 93.6541 73.7805 93.4812 73.7805 93.265C73.7805 93.1353 73.7374 93.0055 73.651 92.9191C73.5647 92.8326 73.3921 92.7461 73.1331 92.7029C73.0899 92.7029 73.0468 92.7029 73.0036 92.6596C72.7447 92.6164 72.6152 92.5299 72.6152 92.4434C72.6152 92.4002 72.6152 92.4002 72.6152 92.357C72.6152 92.3137 72.6583 92.3137 72.6583 92.2705C72.7015 92.2705 72.7015 92.2705 72.7447 92.2705C72.7878 92.2705 72.7878 92.2705 72.831 92.2705C73.0468 92.2705 73.2626 92.184 73.3921 92.0543C73.5647 91.9246 73.6079 91.7516 73.6079 91.5787C73.6079 91.4922 73.6079 91.449 73.5647 91.3625C73.5216 91.3192 73.5216 91.2328 73.4352 91.1895C73.5647 91.1895 73.651 91.1463 73.6942 91.1031C73.6942 91.1463 73.7374 91.1031 73.7374 91.0166ZM72.4425 92.9623C73.0036 93.092 73.3057 93.265 73.3057 93.3947C73.3057 93.5244 73.2626 93.6109 73.1331 93.6541C73.0036 93.7406 72.8741 93.7406 72.7015 93.7406C72.5289 93.7406 72.3562 93.6974 72.2267 93.6109C72.0972 93.5244 72.0541 93.4379 72.0541 93.3082C72.0541 93.2217 72.0972 93.1353 72.1404 93.092C72.2267 93.0488 72.3131 93.0055 72.4425 92.9623ZM73.0468 91.9678C72.9605 92.0543 72.831 92.0975 72.7015 92.0975C72.572 92.0975 72.4425 92.0543 72.3562 91.9678C72.2699 91.8813 72.2267 91.7949 72.2267 91.6652C72.2267 91.5354 72.2699 91.449 72.3562 91.3625C72.4425 91.276 72.572 91.2328 72.7015 91.2328C72.831 91.2328 72.9605 91.276 73.0468 91.3625C73.1331 91.449 73.1763 91.5354 73.1763 91.6652C73.1763 91.7949 73.1331 91.8813 73.0468 91.9678Z" fill="white"/>
<path d="M81.7653 92.7461C81.7653 92.6596 81.7221 92.5299 81.7221 92.357C81.7221 92.3137 81.7221 92.2272 81.7221 92.1408C81.7221 92.0543 81.7221 92.0111 81.7221 92.0111C81.7221 91.7949 81.7221 91.6651 81.6789 91.5787C81.6789 91.4922 81.6358 91.4057 81.5926 91.3192C81.5495 91.1895 81.4631 91.1463 81.3337 91.0598C81.2042 91.0166 81.0747 90.9733 80.9452 90.9733C80.8157 90.9733 80.7294 90.9733 80.5999 91.0166C80.4704 91.0598 80.3841 91.103 80.2546 91.1895C80.2546 91.103 80.2115 91.0598 80.1683 91.0166C80.1252 90.9733 80.082 90.9733 79.9957 90.9733C79.9525 90.9733 79.9525 90.9733 79.9093 90.9733C79.8662 90.9733 79.8662 90.9733 79.823 91.0166C79.8662 91.103 79.8662 91.1895 79.9093 91.3192C79.9093 91.4489 79.9525 91.5787 79.9525 91.7949C79.9525 92.0111 79.9525 92.2272 79.9093 92.4434C79.9093 92.6596 79.8662 92.7893 79.8662 92.8326C79.8662 92.9623 79.8662 93.0055 79.9093 93.0488C79.9525 93.092 79.9957 93.092 80.0388 93.092C80.082 93.092 80.1252 93.092 80.1683 93.0488C80.2115 93.0488 80.2546 93.0055 80.341 92.9623C80.2978 92.8758 80.2978 92.7893 80.2546 92.6596C80.2546 92.5299 80.2115 92.4002 80.2115 92.2272C80.2115 92.184 80.2115 92.0975 80.2115 91.9246C80.2115 91.7516 80.2115 91.5787 80.2115 91.4057C80.2978 91.3192 80.4273 91.276 80.5136 91.2328C80.5999 91.1895 80.7294 91.1895 80.8157 91.1895C80.9884 91.1895 81.1178 91.2328 81.2042 91.3625C81.2905 91.4922 81.3337 91.6651 81.3337 91.9246C81.3337 92.0543 81.3337 92.2272 81.3337 92.4002C81.3337 92.5731 81.3337 92.7029 81.3337 92.7893C81.3337 92.8758 81.3337 92.9623 81.3768 93.0055C81.42 93.0488 81.4631 93.0488 81.5063 93.0488C81.5495 93.0488 81.5926 93.0488 81.6358 93.0055C81.6789 93.0055 81.7221 92.9623 81.8084 92.919C81.8084 92.919 81.7653 92.8326 81.7653 92.7461Z" fill="white"/>
<path d="M17.1106 52.1454C17.1106 51.6265 16.679 51.1941 16.161 51.1941C15.6431 51.1941 15.2115 51.6265 15.2115 52.1454C15.2115 52.6642 15.6431 53.0966 16.161 53.0966C16.679 53.1398 17.1106 52.7075 17.1106 52.1454Z" fill="white"/>
<path d="M25.9585 52.1454C25.9585 51.6265 25.5269 51.1941 25.009 51.1941C24.4911 51.1941 24.0595 51.6265 24.0595 52.1454C24.0595 52.6642 24.4911 53.0966 25.009 53.0966C25.5269 53.1398 25.9585 52.7075 25.9585 52.1454Z" fill="white"/>
</svg>
